<svg width="26" height="17" viewBox="0 0 26 17" fill="none" xmlns="http://www.w3.org/2000/svg">
<path d="M25.9948 8.23151C25.9948 8.43187 25.8736 8.69812 25.7506 8.82747L18.8187 16.193C18.495 16.5275 17.9707 16.5662 17.5935 16.2268C17.2562 15.9231 17.2478 15.3311 17.5597 15.0014L23.124 9.09822L0.866428 9.09822C0.387723 9.09822 0 8.71018 0 8.23179C0 7.75308 0.38804 7.36536 0.866428 7.36536L23.124 7.36536L17.5597 1.46221C17.2478 1.1325 17.2698 0.554937 17.5935 0.237038C17.935 -0.0987171 18.5002 -0.0687995 18.8187 0.270886L25.7506 7.63611C25.9543 7.83587 25.9914 8.02838 25.9948 8.23177V8.23151Z" fill="#BDBDBD"/>
</svg>
