<svg width="63" height="30" viewBox="0 0 63 30" fill="none" xmlns="http://www.w3.org/2000/svg">
<g clip-path="url(#clip0_739_9241)">
<path d="M60.7319 2.01282L60.7319 2.01287C61.891 3.04282 62.518 4.42244 62.4966 5.90656L62.4965 5.90656L62.4966 5.91269L62.4966 22.9834C62.4966 22.9844 62.4966 22.9855 62.4966 22.9865C62.4825 23.907 62.3878 24.9585 62.117 25.9068C61.8434 26.865 61.4071 27.6579 60.7604 28.1306C60.2373 28.5131 59.4353 28.861 58.545 29.116C57.6604 29.3693 56.7346 29.5177 55.985 29.5272C55.9839 29.5272 55.9827 29.5272 55.9815 29.5273L15.3924 29.5272L15.3924 29.5272L15.3856 29.5273C13.6106 29.548 11.9009 28.7207 10.7164 27.5078L10.7163 27.5077L2.363 18.9611L2.36229 18.9604C0.35747 16.9173 0.384648 13.7703 2.48751 11.642L2.48766 11.6422L2.49693 11.6322L10.7262 2.81299C11.9956 1.52288 13.6808 0.465983 15.4188 0.443495C15.4199 0.44348 15.4211 0.443466 15.4222 0.443452L56.3398 0.443498L56.3398 0.443539L56.3467 0.443458C58.0202 0.423789 59.5741 0.983708 60.7319 2.01282Z" fill="#E13B3F" stroke="#E13B3F"/>
<path d="M11.7663 11.5215L11.7436 11.5215C10.7545 11.5216 9.8247 11.8663 9.11964 12.4952C8.41712 13.1242 8.03301 13.9562 8.03282 14.8403M11.7663 11.5215L11.7204 18.1398C9.68301 18.1395 8.03259 16.6583 8.03282 14.8403M11.7663 11.5215C13.777 11.5333 15.4047 12.9856 15.4297 14.7766L15.4297 14.8208C15.4299 15.8519 14.8995 16.7795 14.0622 17.3916C13.4218 17.8597 12.6065 18.1396 11.7206 18.1398L11.7663 11.5215ZM8.03282 14.8403L7.50701 14.83M8.03282 14.8403L7.50701 14.83M7.50701 14.83C7.50674 16.9151 9.40189 18.6123 11.7319 18.6126L8.74494 12.1563C7.9471 12.8705 7.50722 13.8199 7.50701 14.83ZM14.6326 14.3643L14.6329 14.8403C14.6337 16.2718 13.338 17.4306 11.7427 17.43C10.1404 17.43 8.8298 16.2601 8.82959 14.8205L14.6326 14.3643ZM14.6326 14.3643L14.5842 14.3637M14.6326 14.3643L14.5842 14.3637M14.5842 14.3637C14.3331 13.1515 13.1415 12.2318 11.7204 12.2315L11.7203 12.2315C11.047 12.2315 10.4089 12.4358 9.89494 12.8115C9.81852 12.8674 9.74699 12.926 9.67969 12.9852L9.67968 12.9852L9.67679 12.9878C9.13208 13.475 8.82924 14.1263 8.82959 14.8203L14.5842 14.3637Z" fill="#E13B3F" stroke="#E13B3F"/>
<circle cx="12" cy="14.5" r="3" fill="white"/>
</g>
<defs>
<clipPath id="clip0_739_9241">
<rect width="63" height="30" fill="white"/>
</clipPath>
</defs>
</svg>
