<svg width="34" height="34" viewBox="0 0 34 34" fill="none" xmlns="http://www.w3.org/2000/svg">
<g clip-path="url(#clip0_734_9108)">
<path d="M16.9989 31.4997C16.6782 31.5065 16.3636 31.3741 16.0968 31.12L2.62848 17.5206C-0.876161 13.9744 -0.876161 8.20768 2.62848 4.64855C4.51085 2.86018 6.73182 1.93707 8.99277 2.00333C11.2552 1.94278 13.4763 2.87268 15.3571 4.66786L16.9989 6.32192L18.6407 4.66786C22.1498 1.12159 27.8601 1.12159 31.3693 4.66786C34.8784 8.21412 34.8784 13.9744 31.3693 17.54L17.9055 31.12C17.637 31.3742 17.321 31.5066 16.9989 31.4997V31.4997ZM8.99277 4.57775C7.37307 4.54213 5.78465 5.21603 4.4417 6.50857C1.92936 9.04437 1.92936 13.1699 4.4417 15.7057L16.9989 28.3911L29.5606 15.6928C32.0684 13.157 32.0684 9.0315 29.5606 6.4957C27.0527 3.95989 22.9662 3.93415 20.4494 6.50857L17.9055 9.08299C17.6366 9.33046 17.3234 9.46208 17.0034 9.46208C16.6834 9.46208 16.3702 9.33046 16.1013 9.08299L13.5303 6.50857C12.191 5.22018 10.6078 4.5465 8.99277 4.57775V4.57775Z" fill="#E13B3F"/>
</g>
<defs>
<clipPath id="clip0_734_9108">
<rect width="34" height="34" fill="white"/>
</clipPath>
</defs>
</svg>
