<svg width="44" height="44" viewBox="0 0 44 44" fill="none" xmlns="http://www.w3.org/2000/svg">
<path d="M12.0594 31.9414C11.5819 31.464 11.5819 30.6902 12.0594 30.2127L13.2591 29.013V29.0134C12.7452 28.2573 12.4055 27.3969 12.264 26.4939L12.1426 25.6693H12.143C12.0444 25.0016 12.5062 24.3806 13.1739 24.282C13.842 24.1838 14.463 24.6455 14.5612 25.3132L14.6826 26.1382C14.8978 27.3799 15.688 28.4465 16.8137 29.0137C17.6362 29.4134 18.4103 29.4045 18.9397 28.9909C19.515 28.5404 19.6984 27.6926 19.43 26.7228L18.127 22.0187C17.5943 20.0922 18.1082 18.2357 19.4678 17.1727C20.7423 16.1766 22.4985 16.0657 24.1664 16.8763V16.8767C24.4348 17.0093 24.6926 17.1625 24.9382 17.3343L26.1243 16.1483V16.1479C26.602 15.6729 27.3741 15.6739 27.8505 16.1503C28.3269 16.6267 28.3279 17.3988 27.8529 17.8765L26.6491 19.0803V19.08C27.164 19.8343 27.5054 20.6937 27.6486 21.5957L27.77 22.4203C27.8672 23.0877 27.4054 23.7076 26.7384 23.8059C26.071 23.9041 25.4504 23.4434 25.3515 22.7763L25.2301 21.9514C25.0156 20.7093 24.225 19.6427 23.0994 19.0755C22.2772 18.6759 21.5027 18.6844 20.9734 19.0984C20.3977 19.5485 20.2146 20.396 20.4826 21.3662L21.7861 26.07C22.3188 27.9958 21.8048 29.8523 20.4455 30.916C19.1711 31.9121 17.4149 32.0233 15.7466 31.2126V31.213C15.4772 31.0807 15.2184 30.9282 14.9721 30.757L13.7878 31.9414H13.7881C13.3107 32.4188 12.5369 32.4188 12.0595 31.9414L12.0594 31.9414ZM0.954561 28.2498C0.343446 27.6374 0 26.8073 0 25.9417C0 25.0762 0.343411 24.2462 0.954561 23.6337L20.0833 4.49878C21.0218 3.58517 22.0633 2.78408 23.1866 2.11125C28.7453 -1.30104 35.3138 -0.528943 39.9216 4.07895C44.5288 8.68614 45.3012 15.2554 41.8893 20.813C41.2164 21.9367 40.415 22.9782 39.5014 23.9167L20.3665 43.0454C19.7537 43.6566 18.9237 44 18.0584 44C17.1929 44 16.3629 43.6566 15.7503 43.0454L0.954561 28.2498ZM2.68253 26.5219L17.4785 41.3178C17.7991 41.6377 18.3181 41.6377 18.6386 41.3178L37.7735 22.1891V22.1894C38.5517 21.386 39.2338 20.4956 39.8063 19.5349C43.2077 13.9936 41.0633 8.67627 38.194 5.80665C35.3239 2.93659 30.0067 0.792191 24.4657 4.19392C23.5054 4.76684 22.6146 5.44888 21.8112 6.22674L2.68244 25.3616C2.36256 25.6822 2.36256 26.2012 2.68244 26.5218L2.68253 26.5219ZM29.6004 14.4008C28.8283 13.6288 28.3946 12.5815 28.3942 11.4895C28.3942 10.3972 28.8283 9.3499 29.6004 8.5778C30.3724 7.8057 31.4198 7.37198 32.5117 7.37198C33.6037 7.37198 34.651 7.80577 35.4234 8.5778C36.1955 9.34988 36.6292 10.3972 36.6292 11.4895C36.6292 12.5815 36.1955 13.6287 35.4234 14.4008C34.6503 15.1719 33.6034 15.6047 32.5117 15.6047C31.4201 15.6047 30.3732 15.1719 29.6004 14.4008V14.4008ZM30.9825 13.0183C31.3884 13.4238 31.9384 13.6516 32.5117 13.6516C33.0853 13.6516 33.6354 13.4235 34.0409 13.018C34.4464 12.6122 34.6742 12.0625 34.6742 11.4888C34.6739 10.9152 34.446 10.3651 34.0406 9.95962C33.6351 9.55415 33.085 9.32634 32.5114 9.32634C31.9378 9.32634 31.3877 9.55415 30.9822 9.95996C30.5774 10.3658 30.3499 10.9158 30.3499 11.4891C30.3499 12.0627 30.5778 12.6125 30.9825 13.0187V13.0183Z" fill="#384685"/>
</svg>
