<svg width="44" height="44" viewBox="0 0 44 44" fill="none" xmlns="http://www.w3.org/2000/svg">
<path d="M3.13303 38.3507H4.95461C5.35937 40.1787 7.1456 41.5673 9.28435 41.5673C11.4227 41.5673 13.209 40.1864 13.6141 38.3507H29.8141C30.2189 40.1787 32.0051 41.5673 34.1438 41.5673C36.2822 41.5673 38.0684 40.1864 38.4736 38.3507H39.1424C41.3865 38.3507 43.2169 36.6905 43.2169 34.6551V32.3962C43.2169 31.7655 43.0321 31.1592 42.6976 30.6164C42.6711 30.5606 42.6361 30.5125 42.6008 30.4647C42.5654 30.4089 42.5304 30.3528 42.4951 30.297L38.2007 24.6699C37.435 23.672 36.1854 23.0734 34.848 23.0734H26.84V18.2045C26.84 16.6402 25.432 15.363 23.7072 15.363L3.12394 15.3634C1.39919 15.3557 0 16.6248 0 18.1891V35.5099C0 37.074 1.40805 38.3511 3.1328 38.3511L3.13303 38.3507ZM9.28397 39.9712C7.81445 39.9712 6.62628 38.8935 6.62628 37.5606C6.62628 36.2277 7.81445 35.15 9.28397 35.15C10.7446 35.15 11.9328 36.2277 11.9417 37.5526V37.5606C11.9417 38.8854 10.7447 39.9712 9.28397 39.9712V39.9712ZM34.1346 39.9712C32.6739 39.9712 31.4769 38.8935 31.4769 37.5606C31.4769 36.2277 32.6651 35.15 34.1346 35.15C35.5953 35.15 36.7834 36.2277 36.7923 37.5526V37.5606V37.5686C36.7923 38.8854 35.6041 39.9711 34.1346 39.9711V39.9712ZM36.7481 25.5717L40.1976 30.0975H34.6274V24.6701H34.8473C35.6042 24.6697 36.3168 25.0051 36.7481 25.5717V25.5717ZM32.8673 24.6697V30.8955C32.8673 31.3345 33.2632 31.6936 33.7472 31.6936H41.315C41.4031 31.9171 41.4557 32.1566 41.4557 32.3961V34.6549C41.4557 35.8124 40.4175 36.7542 39.1413 36.7542H38.4725C38.0589 34.9262 36.2815 33.5536 34.1427 33.5536C32.0044 33.5536 30.2266 34.9345 29.813 36.7542H26.6714C26.7683 36.5066 26.8298 36.2434 26.8298 35.9641L26.8305 24.6698L32.8673 24.6697ZM1.75996 18.1887C1.75996 17.5023 2.37613 16.9517 3.12379 16.9517H23.6977C24.4545 16.9517 25.0704 17.5106 25.0704 18.1968V35.964C25.0704 36.4029 24.6833 36.754 24.1993 36.754H13.613C13.1994 34.9261 11.422 33.5534 9.28329 33.5534C7.14491 33.5534 5.36717 34.9344 4.95354 36.754H3.13234C2.37549 36.754 1.75936 36.1952 1.75936 35.5087L1.75996 18.1887Z" fill="#384685"/>
<path d="M35.6311 3C31.02 3 27.2622 6.40036 27.2622 10.5907C27.2622 14.7811 31.0112 18.1815 35.6311 18.1815C40.2422 18.1815 44 14.7811 44 10.5907C43.9996 6.40002 40.2511 3 35.6311 3V3ZM35.6311 16.5768C31.9879 16.5768 29.0223 13.887 29.0223 10.5825C29.0223 7.27803 31.9879 4.58824 35.6311 4.58824C39.2744 4.58824 42.2399 7.28607 42.2399 10.5906C42.2399 13.8951 39.2744 16.5768 35.6311 16.5768V16.5768Z" fill="#384685"/>
<path d="M38.0598 9.79199H36.52V7.55715C36.52 7.1182 36.1241 6.75909 35.6401 6.75909C35.1562 6.75909 34.7603 7.1182 34.7603 7.55715V10.59C34.7603 11.029 35.1562 11.3881 35.6401 11.3881H38.0602C38.5442 11.3881 38.9401 11.029 38.9401 10.59C38.9401 10.1511 38.5438 9.79199 38.0598 9.79199H38.0598Z" fill="#384685"/>
</svg>
