<svg width="44" height="45" viewBox="0 0 44 45" fill="none" xmlns="http://www.w3.org/2000/svg">
<path d="M43.8728 22.5652L40.8776 18.5347L41.8734 13.5744C41.9305 13.2924 41.7958 13.0057 41.5457 12.8764L37.1384 10.5831L35.9349 5.66952C35.8665 5.39054 35.6249 5.19441 35.3441 5.18806L30.4031 5.07446L27.2368 1.18299C27.0574 0.960127 26.7526 0.89164 26.5002 1.01025L22 3.1132L17.5005 1.00863C17.2481 0.890348 16.9432 0.960512 16.7639 1.18136L13.5985 5.07318L8.65811 5.18544C8.3777 5.19179 8.13577 5.38792 8.0673 5.66691L6.86316 10.5804L2.45552 12.8722C2.20479 13.0015 2.07013 13.2881 2.12719 13.5685L3.12232 18.5321L0.127158 22.5656C-0.0423861 22.7944 -0.0423861 23.1108 0.127158 23.3384L3.12232 27.3689L2.12585 32.3292C2.06879 32.6112 2.20345 32.8978 2.45354 33.0271L6.86084 35.3189L8.06431 40.2324C8.13279 40.5114 8.37439 40.7075 8.65512 40.7139L13.5961 40.8275L16.7631 44.7206C16.884 44.8703 17.0611 44.9512 17.2411 44.9512C17.3285 44.9512 17.4165 44.9325 17.4996 44.8937L22.0005 42.7904L26.4991 44.8937C26.7531 45.0137 27.0557 44.9435 27.2357 44.721L30.401 40.8292L35.3415 40.7186C35.6219 40.7109 35.8638 40.5144 35.9323 40.2358L37.1364 35.3235L41.5453 33.0302C41.7954 32.9009 41.9301 32.6142 41.873 32.3339L40.8779 27.3702L43.8737 23.3384C44.0423 23.1105 44.0423 22.7928 43.8727 22.5652L43.8728 22.5652ZM39.7149 26.8279C39.6064 26.9742 39.5643 27.1626 39.6008 27.3421L40.5571 32.1123L36.3184 34.3168C36.158 34.3993 36.0403 34.5503 35.9963 34.7298L34.8395 39.4519L30.0902 39.5594C29.9102 39.5641 29.7407 39.6483 29.6259 39.79L26.5832 43.5301L22.2587 41.508C22.0947 41.4332 21.9059 41.4332 21.7419 41.508L17.4151 43.5301L14.3714 39.788C14.2566 39.6464 14.0871 39.5622 13.9071 39.5591L9.15779 39.4486L8.00098 34.7251C7.95696 34.546 7.83893 34.395 7.67883 34.3121L3.44172 32.1093L4.39871 27.3421C4.43523 27.1613 4.39349 26.9729 4.28459 26.8265L1.40587 22.9521L4.28459 19.0743C4.39317 18.928 4.43523 18.7395 4.39871 18.5601L3.44239 13.7898L7.68017 11.587C7.84124 11.5045 7.95928 11.3534 8.00329 11.174L9.1601 6.45055L13.9094 6.34296C14.0894 6.33829 14.2589 6.25408 14.3737 6.11242L17.4158 2.372L21.7412 4.39575C21.9052 4.47059 22.094 4.47059 22.258 4.39575L26.5841 2.37363L29.6278 6.11405C29.7426 6.25571 29.9121 6.33991 30.0921 6.34292L34.8414 6.45184L35.9982 11.1769C36.0422 11.356 36.1599 11.507 36.3203 11.5899L40.5574 13.7944L39.6005 18.5616C39.5639 18.7423 39.6057 18.9308 39.7146 19.0771L42.5933 22.9516L39.7149 26.8279Z" fill="#384685"/>
<path d="M21.5996 7.48337C13.2767 7.48337 6.50488 14.4223 6.50488 22.9523C6.50488 31.4822 13.2764 38.4212 21.5996 38.4212C29.9225 38.4212 36.6944 31.4822 36.6944 22.9523C36.6947 14.4225 29.9232 7.48337 21.5996 7.48337V7.48337ZM21.5996 37.1433C13.9631 37.1433 7.75026 30.7776 7.75026 22.9523C7.75026 15.1269 13.9629 8.76125 21.5996 8.76125C29.2363 8.76125 35.449 15.1269 35.449 22.9523C35.4493 30.7776 29.2366 37.1433 21.5996 37.1433V37.1433Z" fill="#384685"/>
<path d="M25.386 18.3637L25.7029 15.5471C25.7606 15.0315 25.6938 14.5063 25.5092 14.0311C24.6296 11.7628 23.1466 11.4276 22.3683 11.4872C21.9618 11.4982 21.5754 11.685 21.3093 12.0014C21.0439 12.3161 20.9193 12.7338 20.9666 13.1447L21.219 15.3709C21.2607 15.7338 21.1938 16.097 21.0357 16.4024L18.8273 20.3423C18.7087 20.5698 18.5339 20.7646 18.3507 20.8845L18.2339 20.9514C18.1407 20.7188 17.919 20.5541 17.6591 20.5541H13.2404C12.8967 20.5541 12.6179 20.8408 12.6179 21.1929V29.9842C12.6179 30.3363 12.897 30.623 13.2404 30.623H17.6591C17.9953 30.623 18.2659 30.3474 18.2773 30.0056L18.6161 30.2087C19.3618 30.6621 20.2164 30.902 21.0859 30.902L28.1183 30.9003C28.1388 30.902 28.1594 30.902 28.1799 30.902C29.2252 30.902 30.1076 30.1091 30.2461 29.0339C30.2781 28.7863 30.269 28.5431 30.2227 28.3096C30.925 28.0416 31.4646 27.3934 31.5696 26.5801C31.628 26.1221 31.5377 25.6657 31.3303 25.2747C31.4536 25.1939 31.569 25.0986 31.6753 24.991C32.0727 24.5861 32.2918 24.0455 32.2918 23.4705C32.2918 22.8834 32.0463 22.3629 31.6674 21.9726C31.7597 21.8761 31.8725 21.8022 31.9462 21.6883C32.2677 21.1881 32.3698 20.587 32.2328 19.9933C32.0124 19.0337 31.1777 18.3638 30.2025 18.3638L25.386 18.3637ZM17.0365 29.3455H13.8627V21.8315H17.0365V29.3455ZM31.0202 20.2865C31.0773 20.5341 31.0362 20.7834 30.9061 20.9862C30.7838 21.1756 30.5915 21.3039 30.3779 21.3507H25.9331C25.5894 21.3507 25.3107 21.6374 25.3107 21.9895C25.3107 22.3417 25.5898 22.6284 25.9331 22.6284H30.3796C30.7663 22.7139 31.046 23.0601 31.046 23.4714C31.046 23.7036 30.957 23.9231 30.7966 24.0868C30.6368 24.2489 30.4255 24.3377 30.2012 24.3377H30.1927L25.6521 24.3371C25.3085 24.3371 25.0297 24.6237 25.0297 24.9759C25.0297 25.3281 25.3088 25.6147 25.6521 25.6147H29.971C30.2202 25.7982 30.375 26.0955 30.3349 26.414C30.2733 26.8861 29.8576 27.2209 29.3887 27.1604C29.3796 27.159 29.3714 27.1661 29.362 27.1654C29.3437 27.1637 29.3281 27.1544 29.3098 27.1544L25.3479 27.145H25.3463C25.0026 27.145 24.7245 27.43 24.7238 27.7822C24.7232 28.1343 25.0013 28.421 25.345 28.4224L28.9475 28.4307C29.0007 28.567 29.0316 28.7127 29.0118 28.8677C28.954 29.3118 28.5836 29.7044 28.1367 29.6249H21.086C20.4391 29.6249 19.8043 29.4474 19.2487 29.1106L18.608 28.7244C18.5102 28.6649 18.3693 28.6392 18.2819 28.6322V22.306C18.3768 22.3003 18.4707 22.2796 18.5542 22.2325L18.9914 21.9802C19.3853 21.7233 19.7084 21.3634 19.9174 20.9598L22.1258 17.0199C22.414 16.4669 22.5278 15.8452 22.4571 15.2237L22.2047 12.9975C22.1956 12.918 22.2305 12.8618 22.2527 12.8371C22.2745 12.8107 22.3241 12.7656 22.4039 12.7623C23.2585 12.7686 23.8953 13.3246 24.3521 14.5024C24.4617 14.7827 24.5005 15.0961 24.4663 15.4028L24.0838 18.8442C24.0375 19.0343 24.0799 19.2398 24.1979 19.3941C24.3156 19.5498 24.4998 19.6417 24.6912 19.6417H30.2022C30.5902 19.6414 30.9345 19.9127 31.0203 20.2866L31.0202 20.2865Z" fill="#384685"/>
</svg>
